<?xml version="1.0" encoding="utf-8"?>
<!-- Generator: Adobe Illustrator 27.0.1, SVG Export Plug-In . SVG Version: 6.00 Build 0)  -->
<svg version="1.1" id="Layer_2_00000171701423289367632650000007208659442911979661_"
	 xmlns="http://www.w3.org/2000/svg" xmlns:xlink="http://www.w3.org/1999/xlink" x="0px" y="0px" viewBox="0 0 111.4 52.7"
	 style="enable-background:new 0 0 111.4 52.7;" xml:space="preserve">
<style type="text/css">
	.st0{enable-background:new    ;}
	.st1{fill:#231F20;}
</style>
<g id="Layer_1-2">
	<g>
		<g class="st0">
			<path class="st1" d="M21.9,27.2c-0.2-0.4-0.6-0.7-1-0.9c-0.4-0.2-0.9-0.4-1.4-0.4c-1.3,0-2.3,0.4-3,1.1c-0.7,0.8-1.1,1.8-1.1,3
				c0,1.2,0.4,2.2,1.1,3c0.7,0.8,1.7,1.1,3,1.1c0.6,0,1-0.1,1.4-0.4c0.4-0.2,0.7-0.5,1-0.9l3.3,3.5c-0.8,0.8-1.7,1.4-2.8,1.7
				c-1.1,0.3-2.1,0.5-3,0.5c-1.2,0-2.4-0.2-3.5-0.6c-1.1-0.4-2.1-1-2.9-1.7c-0.8-0.7-1.5-1.6-1.9-2.7s-0.7-2.2-0.7-3.5
				c0-1.3,0.2-2.5,0.7-3.5c0.5-1,1.1-1.9,1.9-2.7c0.8-0.7,1.8-1.3,2.9-1.7c1.1-0.4,2.3-0.6,3.5-0.6c1,0,2,0.2,3,0.5
				c1.1,0.3,2,0.9,2.8,1.7L21.9,27.2z"/>
			<path class="st1" d="M23.1,30.1c0-1.3,0.2-2.5,0.7-3.5c0.5-1,1.1-1.9,1.9-2.7c0.8-0.7,1.8-1.3,2.9-1.7s2.3-0.6,3.5-0.6
				c1.2,0,2.4,0.2,3.5,0.6s2.1,1,2.9,1.7c0.8,0.7,1.5,1.6,1.9,2.7c0.5,1,0.7,2.2,0.7,3.5c0,1.3-0.2,2.5-0.7,3.5
				c-0.5,1-1.1,1.9-1.9,2.7c-0.8,0.7-1.8,1.3-2.9,1.7c-1.1,0.4-2.3,0.6-3.5,0.6c-1.2,0-2.4-0.2-3.5-0.6c-1.1-0.4-2.1-1-2.9-1.7
				c-0.8-0.7-1.5-1.6-1.9-2.7C23.3,32.5,23.1,31.4,23.1,30.1z M28.1,30.1c0,1.2,0.4,2.2,1.1,3c0.7,0.8,1.7,1.1,3,1.1s2.3-0.4,3-1.1
				c0.7-0.8,1.1-1.8,1.1-3c0-1.2-0.4-2.2-1.1-3c-0.7-0.8-1.7-1.1-3-1.1s-2.3,0.4-3,1.1C28.4,27.8,28.1,28.8,28.1,30.1z"/>
		</g>
		<g class="st0">
			<path class="st1" d="M51.8,26h-4.4v5.4c0,0.4,0,0.9,0.1,1.2c0,0.4,0.1,0.7,0.3,1c0.2,0.3,0.4,0.5,0.7,0.6
				c0.3,0.1,0.8,0.2,1.3,0.2c0.3,0,0.6,0,1.1-0.1c0.4-0.1,0.8-0.2,1-0.4v4.2c-0.6,0.2-1.1,0.3-1.7,0.4c-0.6,0.1-1.2,0.1-1.8,0.1
				c-0.8,0-1.6-0.1-2.3-0.3c-0.7-0.2-1.3-0.5-1.9-0.9c-0.5-0.4-1-0.9-1.3-1.5c-0.3-0.6-0.5-1.4-0.5-2.3V26h-3.2v-4h3.2v-4.8h5v4.8
				h4.4V26z"/>
		</g>
		<g class="st0">
			<path class="st1" d="M61.5,26h-4.4v5.4c0,0.4,0,0.9,0.1,1.2s0.1,0.7,0.3,1c0.2,0.3,0.4,0.5,0.7,0.6c0.3,0.1,0.8,0.2,1.3,0.2
				c0.3,0,0.6,0,1.1-0.1c0.4-0.1,0.8-0.2,1-0.4v4.2c-0.6,0.2-1.1,0.3-1.7,0.4c-0.6,0.1-1.2,0.1-1.8,0.1c-0.8,0-1.6-0.1-2.3-0.3
				c-0.7-0.2-1.3-0.5-1.9-0.9c-0.5-0.4-1-0.9-1.3-1.5c-0.3-0.6-0.5-1.4-0.5-2.3V26h-3.2v-4h3.2v-4.8h5v4.8h4.4V26z"/>
			<path class="st1" d="M70.9,36.2L70.9,36.2c-0.6,0.9-1.4,1.5-2.3,1.9c-0.9,0.4-1.9,0.6-2.9,0.6c-0.8,0-1.5-0.1-2.2-0.3
				c-0.7-0.2-1.3-0.5-1.9-1c-0.5-0.4-1-0.9-1.3-1.6c-0.3-0.6-0.5-1.3-0.5-2.2c0-0.9,0.2-1.7,0.5-2.4c0.3-0.6,0.8-1.2,1.4-1.6
				c0.6-0.4,1.3-0.8,2-1c0.8-0.2,1.5-0.4,2.4-0.5s1.6-0.2,2.4-0.2s1.6,0,2.3,0c0-0.9-0.3-1.6-1-2.1c-0.6-0.5-1.4-0.8-2.3-0.8
				c-0.8,0-1.6,0.2-2.3,0.5c-0.7,0.3-1.3,0.8-1.8,1.4l-2.7-2.7c0.9-0.9,2-1.5,3.3-2c1.2-0.4,2.5-0.7,3.9-0.7c1.5,0,2.7,0.2,3.6,0.6
				s1.7,0.9,2.3,1.6c0.6,0.7,1,1.6,1.2,2.6c0.2,1,0.3,2.2,0.3,3.6v8.3h-4.6V36.2z M69.7,31.1c-0.4,0-0.9,0-1.4,0
				c-0.6,0-1.1,0.1-1.6,0.3s-1,0.4-1.3,0.7c-0.4,0.3-0.6,0.7-0.6,1.3c0,0.6,0.3,1,0.8,1.3s1,0.4,1.6,0.4c0.5,0,1-0.1,1.4-0.2
				s0.9-0.3,1.2-0.6c0.4-0.2,0.6-0.6,0.9-0.9c0.2-0.4,0.3-0.8,0.3-1.3v-1.1H69.7z"/>
			<path class="st1" d="M92.4,36.8c0,3.1-0.8,5.4-2.3,7c-1.6,1.6-3.9,2.4-7.1,2.4c-1.5,0-2.9-0.2-4.3-0.5s-2.7-1-3.9-1.9l2.8-4.1
				c0.8,0.6,1.6,1.2,2.5,1.5c0.9,0.4,1.8,0.6,2.8,0.6c1.5,0,2.7-0.4,3.4-1.1c0.7-0.7,1.1-1.7,1.1-2.9v-1.6h-0.1
				c-0.6,0.8-1.3,1.3-2.2,1.7s-1.7,0.5-2.4,0.5c-1.2,0-2.3-0.2-3.3-0.6c-1-0.4-1.8-1-2.5-1.7c-0.7-0.7-1.2-1.6-1.6-2.7
				c-0.4-1-0.6-2.2-0.6-3.4c0-1.1,0.2-2.1,0.5-3.1c0.3-1,0.8-1.9,1.5-2.7c0.6-0.8,1.4-1.4,2.3-1.9c0.9-0.5,2-0.7,3.1-0.7
				c0.7,0,1.4,0.1,2,0.2s1.1,0.4,1.6,0.6c0.5,0.2,0.9,0.5,1.2,0.8c0.3,0.3,0.6,0.6,0.8,0.9h0.1v-2.1h4.6V36.8z M79.7,30
				c0,0.5,0.1,1,0.3,1.5c0.2,0.5,0.5,0.9,0.9,1.3s0.8,0.7,1.3,0.9c0.5,0.2,1,0.3,1.6,0.3c0.6,0,1.1-0.1,1.6-0.3
				c0.5-0.2,0.9-0.5,1.3-0.9s0.7-0.8,0.9-1.3c0.2-0.5,0.3-1,0.3-1.5c0-0.5-0.1-1-0.3-1.5c-0.2-0.5-0.5-0.9-0.9-1.3s-0.8-0.7-1.3-0.9
				c-0.5-0.2-1-0.3-1.6-0.3c-0.6,0-1.1,0.1-1.6,0.3c-0.5,0.2-0.9,0.5-1.3,0.9S80.2,28,80,28.4C79.8,28.9,79.7,29.4,79.7,30z"/>
			<path class="st1" d="M108.4,35.4c-0.8,1-1.8,1.8-3,2.4c-1.2,0.6-2.5,0.8-3.8,0.8c-1.2,0-2.4-0.2-3.5-0.6c-1.1-0.4-2.1-1-2.9-1.7
				c-0.8-0.7-1.5-1.6-1.9-2.7c-0.5-1-0.7-2.2-0.7-3.5c0-1.3,0.2-2.5,0.7-3.5c0.5-1,1.1-1.9,1.9-2.7c0.8-0.7,1.8-1.3,2.9-1.7
				c1.1-0.4,2.3-0.6,3.5-0.6c1.2,0,2.2,0.2,3.2,0.6s1.8,1,2.4,1.7c0.7,0.7,1.2,1.6,1.5,2.7c0.4,1,0.5,2.2,0.5,3.5v1.6H97.6
				c0.2,1,0.6,1.7,1.3,2.3c0.7,0.6,1.5,0.9,2.5,0.9c0.8,0,1.5-0.2,2.1-0.6c0.6-0.4,1.1-0.8,1.5-1.4L108.4,35.4z M104.2,28.2
				c0-0.8-0.3-1.6-0.8-2.2c-0.6-0.6-1.3-0.9-2.2-0.9c-0.6,0-1,0.1-1.5,0.3s-0.8,0.4-1.1,0.7c-0.3,0.3-0.5,0.6-0.7,1
				c-0.2,0.4-0.3,0.8-0.3,1.2H104.2z"/>
		</g>
		<g class="st0">
			<path class="st1" d="M10.8,17.3l-1.8,1.1l1.3,2.2c0.1,0.2,0.2,0.3,0.3,0.5c0.1,0.1,0.2,0.2,0.3,0.3c0.1,0.1,0.3,0.1,0.4,0.1
				c0.2,0,0.4-0.1,0.6-0.2c0.1-0.1,0.2-0.2,0.4-0.3s0.3-0.3,0.3-0.4l1,1.7c-0.2,0.2-0.4,0.4-0.6,0.6c-0.2,0.2-0.5,0.3-0.7,0.5
				c-0.3,0.2-0.7,0.4-1,0.5c-0.3,0.1-0.6,0.1-1,0.1c-0.3,0-0.6-0.1-0.9-0.3S9.1,23,8.9,22.6l-1.8-3.1l-1.3,0.8l-1-1.6l1.3-0.8L5,16
				l2-1.2l1.1,1.9l1.8-1.1L10.8,17.3z"/>
		</g>
		<g class="st0">
			<path class="st1" d="M11.5,10.8l1.2,5.1l0,0c0-0.2,0.1-0.3,0.2-0.5c0.1-0.2,0.2-0.3,0.4-0.5c0.1-0.2,0.3-0.3,0.5-0.4
				c0.2-0.1,0.5-0.2,0.7-0.3c0.6-0.1,1.1-0.2,1.5-0.1c0.4,0.1,0.7,0.3,1,0.5c0.3,0.3,0.5,0.6,0.7,1s0.3,0.9,0.4,1.4l1,4.1l-2.3,0.5
				l-0.8-3.6c0-0.2-0.1-0.4-0.2-0.7c-0.1-0.2-0.2-0.4-0.3-0.6c-0.1-0.2-0.3-0.3-0.5-0.4c-0.2-0.1-0.4-0.1-0.7,0
				c-0.3,0.1-0.5,0.2-0.7,0.3s-0.3,0.3-0.3,0.5s-0.1,0.4,0,0.6c0,0.2,0.1,0.5,0.1,0.7l0.9,3.7L12,22.8L9.3,11.3L11.5,10.8z"/>
		</g>
		<g class="st0">
			<path class="st1" d="M25,21c-0.4,0.4-1,0.7-1.6,0.9c-0.6,0.2-1.2,0.2-1.8,0.1c-0.6-0.1-1.1-0.3-1.6-0.5c-0.5-0.3-0.9-0.6-1.2-1
				s-0.5-0.9-0.7-1.4C18,18.6,18,18,18.1,17.4c0.1-0.6,0.3-1.1,0.6-1.6c0.3-0.4,0.7-0.8,1.1-1.1c0.4-0.3,0.9-0.5,1.5-0.6
				s1.1-0.1,1.7,0c0.5,0.1,1,0.3,1.4,0.5c0.4,0.3,0.7,0.6,1,1s0.4,0.8,0.5,1.4c0.1,0.5,0.1,1.1,0,1.7l-0.1,0.7l-5.4-0.9
				c0,0.5,0.2,0.8,0.4,1.2c0.3,0.3,0.6,0.5,1.1,0.6c0.4,0.1,0.7,0,1-0.1c0.3-0.1,0.6-0.3,0.8-0.5L25,21z M23.6,17.4
				c0.1-0.4,0-0.7-0.2-1.1c-0.2-0.3-0.5-0.5-1-0.6c-0.3,0-0.5,0-0.7,0s-0.4,0.1-0.6,0.2s-0.3,0.2-0.4,0.4c-0.1,0.2-0.2,0.3-0.2,0.5
				L23.6,17.4z"/>
		</g>
		<g class="st0">
			<path class="st1" d="M51.8,9c0,0,0.1,0,0.2,0c0.1,0,0.2,0.1,0.2,0.1s0.2,0.1,0.2,0.2s0.2,0.3,0.3,0.4C52.9,9.9,53,10,53,10.1
				s0.1,0.1,0.1,0.2c0,0.1,0.1,0.2,0.2,0.2c0.1,0,0.1,0.1,0.1,0.2c0,0.1,0.1,0.2,0.1,0.2c0,0.1,0.1,0.2,0.1,0.6c0,0.3,0,0.5,0,0.8
				l0,0.3l0.1,0.1c0,0,0.1,0.1,0.1,0.1c0,0,0,0.1-0.1,0.2L53.7,13l0,0.3c0,0.2,0,0.4,0,0.4v0.1l0-0.1c0,0,0.1-0.3,0.2-0.6
				c0.1-0.3,0.2-0.6,0.2-0.7c0-0.1,0-0.2,0-0.2s0-0.1-0.1-0.1c0-0.1-0.1-0.1,0-0.1c0,0,0-0.1,0-0.2c0-0.1-0.1-0.2-0.1-0.3
				c-0.1-0.1-0.1-0.3-0.2-0.4c0-0.1-0.1-0.3-0.1-0.4c0-0.1-0.1-0.3-0.1-0.4s0-0.3,0-0.4c0-0.1,0-0.2,0-0.3s0.1-0.1,0.1-0.2
				c0.1-0.1,0.1-0.1,0.2-0.2c0,0,0.1,0,0.2,0c0,0,0.1,0,0.1,0c0,0,0.1,0,0.1,0s0.1,0,0.1,0.1c0,0,0,0.1,0,1.3c0,0.9,0,1.2,0,1.2
				c0,0,0-0.1,0.1-0.1c0-0.1,0-0.2,0.1-0.2c0,0,0.1-0.1,0.1-0.2c0-0.1,0.1-0.2,0.2-0.3c0.1-0.1,0.2-0.2,0.2-0.2
				c0.1-0.1,0.2-0.1,0.2-0.2s0.1-0.1,0.1-0.1s0.1,0,0.2-0.1c0.1,0,0.3,0,0.3,0h0.3c0.1,0,0.3,0,0.4,0s0.2,0,0.3,0.1
				c0.1,0,0.2,0.1,0.3,0.2c0.1,0.1,0.2,0.2,0.2,0.2c0,0.1,0,0.1,0,0.2s0,0.1-0.1,0.1c-0.1,0.1-0.1,0.1-0.2,0.1c-0.1,0-0.2,0-0.3,0
				c-0.1,0-0.2-0.1-0.3-0.1c-0.1,0-0.2,0-0.3,0c-0.1,0-0.2,0.1-0.4,0.2c-0.1,0.1-0.4,0.2-0.5,0.3s-0.3,0.2-0.4,0.3
				c-0.1,0.1-0.1,0.1-0.2,0.2c0,0,0,0,0,0.1s0,0.1,0,0.1c0,0.1,0,0.1-0.1,0.2c0,0-0.1,0.2-0.2,0.3c-0.1,0.2-0.1,0.3-0.2,0.4
				s-0.1,0.3-0.1,0.4c0,0.1-0.1,0.3-0.1,0.5c0,0.1-0.1,0.3-0.1,0.5c0,0.3,0,0.3,0,0.5c0,0.2,0,0.3,0.1,0.3c0,0,0,0.1,0,0.5
				c0,0.2,0,0.6,0,0.7c0,0.2,0,0.6,0,0.9c0,0.3,0,0.6,0,0.7v0.2c0,0,0,0.1,0,0.1c0,0,0.1-0.2,0.1-0.4c0.1-0.2,0.1-0.4,0.2-0.4
				s0-0.1,0-0.2c0,0,0-0.1,0.1-0.1s0.1-0.1,0.1-0.1c0,0,0.1-0.1,0.2-0.3c0.1-0.1,0.1-0.3,0.1-0.3s0-0.1-0.1-0.1c0,0-0.1-0.1-0.1-0.1
				c0,0-0.1-0.2-0.2-0.2c0-0.1-0.1-0.2-0.1-0.3c0-0.1,0-0.2,0-0.6c0-0.4,0-0.4,0-0.5c0,0,0-0.1,0.1-0.1c0,0,0.1,0,0.2,0.1
				c0.1,0,0.1,0.1,0.2,0.1c0,0,0.1,0.1,0.1,0.1c0,0,0.1,0.2,0.1,0.3c0,0.1,0.1,0.3,0.1,0.5c0,0.2,0,0.3,0,0.3s0,0.1,0,0.1
				c0,0,0.1-0.1,0.2-0.2c0.1-0.1,0.2-0.2,0.2-0.3c0,0,0.1-0.1,0.1-0.1l0.3-0.3c0.2-0.2,0.3-0.3,0.3-0.3s0,0-0.1,0
				c-0.1,0-0.1,0-0.2,0c0,0-0.2-0.1-0.2-0.1c-0.1,0-0.2,0-0.3-0.1c-0.1,0-0.3-0.1-0.4-0.1c-0.1,0-0.3,0-0.4-0.1
				c-0.2-0.1-0.2-0.1-0.3-0.2c0,0-0.1-0.1-0.1-0.1c0,0,0,0,0-0.1s0.1,0,0.1-0.1c0,0,0.1,0,0.2-0.1c0,0,0.1,0,0.2-0.1
				c0.1,0,0.2-0.1,0.3-0.1c0.1,0,0.3,0,0.3,0c0.1,0,0.2,0,0.2,0c0.1,0,0.2,0,0.3,0.1s0.2,0.1,0.2,0.1l0.2,0.2l0.1-0.2
				c0.1-0.1,0.2-0.3,0.3-0.4c0.1-0.1,0.2-0.3,0.3-0.4l0.3-0.3c0.1-0.1,0.3-0.2,0.3-0.3c0.1,0,0.2-0.1,0.3-0.2c0.1,0,0.2,0,0.3,0
				c0.1,0,0.2,0,0.2,0c0,0,0.1,0,0.2,0.1c0,0,0.1,0.1,0.1,0.1c0,0.1,0,0.1,0,0.2c0,0.1-0.1,0.2-0.1,0.3c0,0.1-0.1,0.2-0.2,0.3
				c-0.1,0.1-0.2,0.2-0.3,0.3c-0.1,0.1-0.3,0.2-0.4,0.3s-0.3,0.2-0.4,0.3c-0.1,0.1-0.2,0.1-0.2,0.1l-0.1,0c0,0-0.1,0.1-0.2,0.1
				c-0.1,0-0.1,0.1-0.2,0.1s-0.1,0-0.1,0.1s-0.1,0-0.1,0.1c0,0.1,0,0.1,0,0.1s0.1,0,0.2,0s0.2,0,0.3-0.1c0.1,0,0.3,0,0.5,0
				c0.2,0,0.3,0,0.4,0c0,0,0.1,0.1,0.1,0.1v0.1c0,0,0,0.1-0.1,0.3c-0.1,0.1-0.2,0.3-0.2,0.3s-0.1,0.1-0.2,0.2c0,0-0.1,0.1-0.2,0.1
				s-0.1,0.1-0.2,0.1c-0.1,0-0.2,0-0.3,0c-0.1,0-0.1,0-0.2,0c-0.1,0-0.1,0-0.2,0c-0.1,0-0.1,0-0.3-0.1C56.1,16,56,16,55.9,16h-0.1
				l-0.2,0.2c-0.1,0.1-0.2,0.3-0.3,0.4s-0.2,0.3-0.3,0.5c-0.1,0.2-0.2,0.3-0.2,0.4s0,0.1,0,0.1c0,0-0.1,0.1-0.1,0.1c0,0,0,0.1,0,0.1
				c0,0.1-0.1,0.3-0.2,0.6c-0.1,0.3-0.2,0.5-0.2,0.6s0,0.1,0,0.1c0,0,0.1,0,0.2-0.1c0.1-0.1,0.2-0.1,0.3-0.2s0.3-0.2,0.6-0.3
				c0.3-0.2,0.7-0.4,1-0.5c0.3-0.2,0.5-0.3,0.5-0.3c0,0,0.1-0.1,0.3-0.1s0.3-0.1,0.4-0.1c0.1,0,0.2,0,0.4,0s0.3,0,0.4,0
				s0.2,0.1,0.3,0.1s0.2,0.1,0.3,0.2c0.1,0.1,0.2,0.1,0.2,0.2v0.1c0,0,0,0.1-0.1,0.1c-0.1,0.1-0.1,0.1-0.2,0.1
				c-0.1,0-0.2,0.1-0.3,0.1c-0.1,0-0.2,0-0.3,0s-0.2,0-0.3,0c-0.2,0-0.2,0-0.5-0.1c-0.1,0-0.3-0.1-0.5-0.1L56.8,18l-0.3,0.2
				c-0.2,0.1-0.5,0.2-0.6,0.3c-0.1,0.1-0.3,0.2-0.3,0.2c0,0-0.2,0.1-0.3,0.2c-0.1,0.1-0.3,0.2-0.3,0.2c-0.1,0-0.2,0.2-0.3,0.2
				c-0.1,0.1-0.2,0.2-0.3,0.2c-0.1,0.1-0.1,0.1-0.1,0.1s0,0.1,0,0.2c0,0.1,0,0.5,0,0.8c0,0.5,0,0.6,0,0.8c0,0.1,0,0.2,0,0.2
				c0,0,0,0.1-0.1,0.1c-0.1,0-0.1,0-0.1,0c0,0-0.1,0-0.1-0.1c0,0,0-0.2,0-0.4v-1.1c0-0.7,0-0.7,0-0.8c0,0,0,0-0.1-0.1
				c0,0,0-0.1,0.1-0.2l0-0.1v-0.4c0-0.2,0-0.5,0-0.6l0-0.2h-0.1c-0.1,0-0.1-0.1-0.5-0.5c-0.2-0.3-0.4-0.6-0.5-0.6
				c-0.1-0.1-0.2-0.3-0.4-0.5c-0.2-0.2-0.3-0.5-0.4-0.6c-0.1-0.1-0.1-0.2-0.1-0.2c0,0-0.1,0-0.2,0.1c-0.1,0.1-0.2,0.2-0.3,0.2
				c-0.1,0-0.2,0.1-0.3,0.2c-0.1,0-0.2,0.1-0.3,0.2c-0.1,0.1-0.2,0.1-0.3,0.2c-0.1,0-0.1,0-0.2,0c0,0-0.1,0-0.2-0.1
				c0,0-0.1-0.1-0.1-0.1c0,0,0-0.1,0-0.1c0,0,0.1-0.1,0.1-0.1c0,0,0-0.1,0-0.1c0,0,0.1-0.1,0.1-0.2c0-0.1,0.1-0.2,0.2-0.2
				c0.1-0.1,0.2-0.2,0.2-0.2c0,0,0.1-0.1,0.2-0.1c0,0,0.1,0,0.2-0.1c0.1,0,0.2-0.1,0.3-0.1s0.2,0,0.3,0c0,0,0.1,0,0.1,0
				c0,0,0.1-0.2,0.1-0.3c0.1-0.1,0.1-0.3,0.2-0.3c0-0.1,0.1-0.2,0.2-0.2c0.1-0.1,0.1-0.1,0.2-0.1h0.1c0,0,0.1,0,0.1,0
				s0.1,0.1,0.1,0.1c0,0.1,0,0.1,0,0.2c0,0.1,0,0.1-0.1,0.2c0,0.1-0.1,0.1-0.1,0.2c0,0,0,0-0.1,0.1c-0.1,0-0.2,0.1-0.2,0.2
				c-0.1,0.1-0.2,0.1-0.2,0.1c0,0-0.1,0.1-0.1,0.1c0,0.1,0,0.1,0.3,0.6c0.2,0.3,0.5,0.7,0.6,0.8c0.1,0.2,0.3,0.5,0.5,0.6
				c0.1,0.2,0.2,0.3,0.2,0.3v-0.2c0-0.1,0-0.4,0-0.7c0-0.2,0-0.6-0.1-0.7c0-0.2,0-0.3,0-0.4s0-0.2,0-0.3c0-0.2,0-0.3-0.1-0.3
				s0,0,0-0.1s0-0.2,0-0.6c0-0.3-0.1-0.6-0.1-0.8c0-0.2,0-0.3-0.1-0.3c0,0,0,0-0.1-0.1c-0.1,0-0.1,0-0.2-0.1s0,0-0.1,0
				c0,0-0.1,0.1-0.2,0.1c-0.1,0-0.1,0.1-0.2,0.2c0,0-0.2,0.2-0.3,0.3c-0.1,0.1-0.3,0.3-0.4,0.3c-0.1,0.1-0.3,0.2-0.3,0.2
				c-0.1,0-0.2,0-0.3,0c-0.1,0-0.1,0-0.2,0c0,0-0.1-0.1-0.2-0.1c-0.1,0-0.1-0.1-0.1-0.1s0-0.1,0-0.2c0-0.1,0.1-0.2,0.2-0.2
				c0.1-0.1,0.2-0.2,0.3-0.3c0.1-0.1,0.3-0.3,0.4-0.4c0.1-0.1,0.3-0.2,0.3-0.3c0.1,0,0.2-0.1,0.3-0.2c0.1,0,0.2,0,0.2-0.1
				c0,0,0.1,0,0.2,0c0.1,0,0.1,0,0.2,0c0,0,0.1,0,0.2,0.1s0.2,0.1,0.2,0.1l0.1,0c0,0,0-0.1,0-0.2s0-0.2-0.1-0.2c0,0-0.1-0.1-0.2-0.2
				c-0.1-0.1-0.1-0.2-0.1-0.2s-0.1-0.3-0.3-0.6l-0.3-0.5L52,10.1c-0.2-0.2-0.4-0.3-0.5-0.4s-0.2-0.2-0.2-0.3
				c-0.1-0.1-0.1-0.2-0.1-0.3c0,0,0-0.1,0-0.1c0,0,0.1,0,0.1,0c0,0,0.1,0,0.2,0c0,0,0.2,0,0.2,0C51.7,9,51.8,9,51.8,9z M51.6,15.1
				C51.6,15.1,51.6,15.1,51.6,15.1C51.6,15.1,51.6,15.2,51.6,15.1C51.6,15.2,51.6,15.2,51.6,15.1C51.7,15.2,51.7,15.2,51.6,15.1
				C51.7,15.1,51.7,15.1,51.6,15.1z M53.2,12.5C53.1,12.5,53.1,12.5,53.2,12.5C53.1,12.5,53.1,12.5,53.2,12.5L53.2,12.5
				C53.3,12.6,53.3,12.5,53.2,12.5z M53.2,10.9C53.2,10.9,53.2,10.9,53.2,10.9c0,0.1,0,0.2,0,0.2l0,0.1v-0.1
				C53.3,11.1,53.3,11,53.2,10.9C53.2,10.9,53.2,10.9,53.2,10.9z M54.1,18.1c0-0.1,0-0.1,0,0.2c0,0.2,0,0.3,0,0.3c0,0,0-0.1,0-0.2
				S54.1,18.1,54.1,18.1z M54.9,16.1C54.9,16.1,54.9,16.1,54.9,16.1C54.9,16.1,54.9,16.2,54.9,16.1C54.9,16.2,54.9,16.2,54.9,16.1
				C55,16.2,55,16.2,54.9,16.1C55,16.1,55,16.1,54.9,16.1z M57.3,15.8C57.3,15.8,57.3,15.8,57.3,15.8c-0.1,0-0.2,0.1-0.2,0.1
				s0,0,0,0C57.3,15.9,57.3,15.8,57.3,15.8C57.3,15.8,57.3,15.8,57.3,15.8z"/>
		</g>
	</g>
</g>
</svg>
